<?xml version="1.0" encoding="UTF-8" standalone="no"?>
<!DOCTYPE svg PUBLIC "-//W3C//DTD SVG 1.1//EN" "http://www.w3.org/Graphics/SVG/1.1/DTD/svg11.dtd">
<svg width="100%" height="100%" viewBox="0 0 600 600" version="1.1" xmlns="http://www.w3.org/2000/svg" xmlns:xlink="http://www.w3.org/1999/xlink" xml:space="preserve" xmlns:serif="http://www.serif.com/" style="fill-rule:evenodd;clip-rule:evenodd;stroke-linejoin:round;stroke-miterlimit:2;">
    <g transform="matrix(1.02796,0,0,1.06086,0.0244851,-0.0605946)">
        <path d="M583.74,0.996L146.017,0.996C107.059,0.996 69.696,15.992 42.148,42.686C14.6,69.379 -0.876,105.583 -0.876,143.334L-0.876,585.611L436.884,585.611C475.833,585.611 513.186,570.619 540.727,543.932C568.267,517.245 583.74,481.05 583.74,443.309L583.74,0.996Z"/>
    </g>
    <g transform="matrix(3.50784,0,0,3.17923,33.3936,29.4615)">
        <g transform="matrix(0.593558,0,0,0.633683,2.33579,8.23015)">
            <path d="M78.159,127.855C65.137,116.543 56.98,100.379 56.98,82.445C56.98,48.265 86.606,20.515 123.097,20.515C159.588,20.515 189.213,48.265 189.213,82.445C189.213,100.369 181.066,116.525 168.058,127.835L231.773,217.481L15.191,218.595L78.159,127.855Z"/>
        </g>
        <g transform="matrix(0.573181,0,0,0.611928,4.22137,10.6025)">
            <path d="M157.049,112.346C148.656,120.538 110.86,133.2 119.475,123.371C146.773,92.228 108.881,94.819 89.574,111.407L122.578,63.846L157.049,112.346Z"/>
        </g>
    </g>
    <g transform="matrix(0.958868,0,0,0.958868,11.6383,2.90945)">
        <path d="M393.845,249.339C383.165,291.208 345.174,322.207 300,322.207C253.703,322.207 214.951,289.649 205.412,246.206L283.688,129.896C288.992,128.994 294.441,128.525 300,128.525C303.88,128.525 307.708,128.754 311.465,129.198L393.845,249.339ZM367.83,288.153C350.524,305.045 272.595,331.15 290.358,310.885C346.642,246.672 268.515,252.016 228.706,286.217L296.756,188.154L367.83,288.153Z" style="fill:white;"/>
    </g>
    <g transform="matrix(0.958868,0,0,0.958868,11.2819,2.90945)">
        <path d="M169.599,298.884C157.668,277.396 150.872,252.671 150.872,226.372C150.872,143.748 217.952,76.667 300.576,76.667C383.2,76.667 450.281,143.748 450.281,226.372C450.281,253.059 443.282,278.125 431.025,299.827L592.212,543.564L7.788,543.564L169.599,298.884ZM233.048,321.242L214.202,348.627C238.617,365.916 268.419,376.076 300.576,376.076C339.781,376.076 375.487,360.973 402.188,336.271L523.014,506.271L76.456,508.567L191.076,343.396L190.743,343.167L216.369,305.93C197.597,284.991 186.128,257.046 186.128,226.372C186.128,161.508 237.411,108.847 300.576,108.847C363.742,108.847 415.024,161.508 415.024,226.372C415.024,291.235 363.742,343.896 300.576,343.896C275.329,343.896 251.98,335.483 233.048,321.242Z" style="fill:white;"/>
    </g>
</svg>
