<?xml version="1.0" encoding="UTF-8" standalone="no"?>
<!DOCTYPE svg PUBLIC "-//W3C//DTD SVG 1.1//EN" "http://www.w3.org/Graphics/SVG/1.1/DTD/svg11.dtd">
<svg width="100%" height="100%" viewBox="0 0 560 123" version="1.1" xmlns="http://www.w3.org/2000/svg" xmlns:xlink="http://www.w3.org/1999/xlink" xml:space="preserve" xmlns:serif="http://www.serif.com/" style="fill-rule:evenodd;clip-rule:evenodd;stroke-linejoin:round;stroke-miterlimit:2;">
    <g transform="matrix(0.418608,0,0,0.418608,-1.03102,1.70901)">
        <path d="M195.314,202.428L185.893,202.428L185.893,214.428C185.893,216.549 185.05,218.584 183.55,220.084C182.05,221.585 180.015,222.428 177.893,222.428L109.44,222.428L139.298,283.053C140.632,285.762 143.378,287.489 146.397,287.519C149.417,287.548 152.196,285.874 153.582,283.191L195.314,202.428ZM91.236,185.465L97.015,197.199L115.385,197.199L115.385,185.465L91.236,185.465ZM208.35,177.199L214.414,165.465L185.893,165.465L185.893,177.199L208.35,177.199ZM73.033,148.503L78.812,160.237L115.385,160.237L115.385,148.503L73.033,148.503ZM227.45,140.237L233.513,128.503L185.893,128.503L185.893,140.237L227.45,140.237ZM54.829,111.541L60.608,123.275L115.385,123.275L115.385,111.541L54.829,111.541ZM246.549,103.275L252.612,91.541L185.893,91.541L185.893,103.275L246.549,103.275ZM36.626,74.579L42.404,86.313L115.385,86.313L115.385,74.579L36.626,74.579ZM265.648,66.313L271.711,54.579L185.893,54.579L185.893,66.313L265.648,66.313ZM24.201,49.351L115.385,49.351L115.385,37.351C115.385,32.932 118.966,29.351 123.385,29.351L284.747,29.351L293.773,11.884C295.054,9.404 294.951,6.435 293.499,4.051C292.047,1.666 289.457,0.211 286.666,0.211L12.858,0.211C10.093,0.211 7.525,1.638 6.065,3.985C4.605,6.332 4.459,9.266 5.681,11.746L24.201,49.351Z"/>
    </g>
    <g transform="matrix(1.79967,0,0,1.85147,-188.44,-134.456)">
        <path d="M196.055,91.596C200.155,91.596 201.819,93.795 201.819,96.885C201.819,99.916 200.155,102.115 195.758,102.115L185.419,102.115L185.419,91.596L196.055,91.596ZM208.463,124.202L208.463,113.036C208.463,108.404 207.158,106.446 203.657,105.319C207.456,103.954 209.532,100.392 209.532,96.172C209.532,89.638 204.726,84.773 197.422,84.773L177.409,84.773L177.409,124.202L185.419,124.202L185.419,108.76L194.213,108.76C198.967,108.76 200.393,110.245 200.393,114.046L200.393,124.202L208.463,124.202Z" style="fill-rule:nonzero;"/>
        <path d="M219.213,106.748C219.51,102.705 222.066,100.326 225.156,100.326C228.187,100.326 231.039,102.407 231.158,106.748L219.213,106.748ZM239.109,111.611C239.109,100.03 234.362,94.216 225.394,94.216C216.424,94.216 211.262,100.03 211.262,109.061C211.262,119.633 216.128,124.974 225.869,124.974C232.108,124.974 236.914,121.591 238.694,115.597L230.742,115.597C230.207,117.615 228.009,118.864 225.513,118.864C221.709,118.864 219.213,116.01 218.976,111.611L239.109,111.611Z" style="fill-rule:nonzero;"/>
        <path d="M266.787,103.832C266.371,97.538 262.574,94.216 254.139,94.216C245.23,94.216 241.849,97.953 241.849,102.881C241.849,105.495 242.798,107.753 245.527,109.476C247.604,110.783 250.335,111.615 255.268,112.803C257.764,113.398 259.963,114.051 259.963,116.131C259.963,118.329 257.527,119.161 254.793,119.161C251.049,119.158 248.731,117.555 248.731,114.825L240.78,114.825C240.898,120.76 245.883,124.974 254.852,124.974C263.167,124.974 267.617,121.354 267.617,115.3C267.617,111.498 265.897,109.477 262.811,108.229C260.557,107.338 257.408,106.684 254.08,105.734C250.93,104.842 249.325,104.129 249.325,102.406C249.325,100.683 250.989,99.97 253.901,99.97C257.408,99.973 258.953,100.982 259.369,103.83L266.787,103.832Z" style="fill-rule:nonzero;"/>
        <path d="M284.191,118.507C279.497,118.507 277.12,115.537 277.12,109.595C277.12,103.653 279.497,100.742 284.191,100.742C288.886,100.742 291.263,103.653 291.263,109.595C291.263,115.537 288.886,118.507 284.191,118.507ZM284.191,124.974C293.28,124.974 299.036,118.863 299.036,109.595C299.036,100.267 293.339,94.216 284.191,94.216C274.925,94.216 269.169,100.327 269.169,109.595C269.169,118.685 274.747,124.974 284.191,124.974Z" style="fill-rule:nonzero;"/>
        <path d="M328.316,124.202L328.316,103.949C328.316,97.598 324.222,94.216 318.641,94.216C313.946,94.216 310.974,95.996 309.192,99.259L309.192,94.988L301.834,94.988L301.834,124.202L309.548,124.202L309.548,107.453C309.548,102.999 311.509,100.742 315.551,100.742C319.235,100.742 320.543,101.989 320.543,106.503L320.543,124.202L328.316,124.202Z" style="fill-rule:nonzero;"/>
        <path d="M349.407,113.1C349.348,116.546 346.376,119.458 342.394,119.458C339.957,119.458 338.65,118.388 338.65,116.19C338.65,113.694 340.076,112.446 344.474,111.614C347.327,111.079 348.694,110.663 349.467,109.891L349.407,113.1ZM357.18,124.202L357.18,105.731C357.18,98.371 353.976,94.216 344.712,94.216C335.327,94.216 332.004,98.43 331.886,104.484L339.066,104.484C339.423,101.871 340.849,100.148 344.355,100.148C347.386,100.148 349.288,101.277 349.288,103.178C349.288,105.198 348.219,105.971 344.355,106.505C336.573,107.575 330.936,108.526 330.936,116.962C330.936,121.712 334.022,124.974 340.671,124.974C344.593,124.974 347.684,123.61 349.526,121.593C349.585,122.482 349.763,123.49 350.001,124.202L357.18,124.202Z" style="fill-rule:nonzero;"/>
        <path d="M377.143,112.566C377.143,116.19 375.717,118.27 372.626,118.27C369.475,118.27 368.168,116.131 368.168,112.447L368.168,100.445L384.322,100.445L384.322,94.988L368.168,94.988L368.168,87.089L360.573,87.089L360.573,113.22C360.573,119.516 363.955,124.974 372.507,124.974C380.762,124.974 384.322,119.456 384.322,113.279L384.322,104.961L377.143,104.961L377.143,112.566Z" style="fill-rule:nonzero;"/>
        <path d="M394.775,106.748C395.072,102.705 397.628,100.326 400.718,100.326C403.749,100.326 406.601,102.407 406.72,106.748L394.775,106.748ZM414.671,111.611C414.671,100.03 409.924,94.216 400.956,94.216C391.986,94.216 386.824,100.03 386.824,109.061C386.824,119.633 391.689,124.974 401.431,124.974C407.67,124.974 412.476,121.591 414.256,115.597L406.304,115.597C405.769,117.615 403.571,118.864 401.075,118.864C397.271,118.864 394.775,116.01 394.537,111.611L414.671,111.611Z" style="fill-rule:nonzero;"/>
    </g>
</svg>
